<?xml version="1.0" encoding="UTF-8"?>
<svg version="1.1" xmlns="http://www.w3.org/2000/svg" width="2000" height="2000">
<path d="M0 0 C35.64 0 71.28 0 108 0 C108 11.88 108 23.76 108 36 C131.76 36 155.52 36 180 36 C180 60.09 180 84.18 180 109 C191.88 109 203.76 109 216 109 C216 144.64 216 180.28 216 217 C204.12 217 192.24 217 180 217 C180 252.64 180 288.28 180 325 C168.12 325 156.24 325 144 325 C144 337.21 144 349.42 144 362 C108.36 362 72.72 362 36 362 C36 385.76 36 409.52 36 434 C47.88 434 59.76 434 72 434 C72 469.64 72 505.28 72 542 C83.88 542 95.76 542 108 542 C108 553.88 108 565.76 108 578 C119.88 578 131.76 578 144 578 C144 613.97 144 649.94 144 687 C155.88 687 167.76 687 180 687 C180 710.76 180 734.52 180 759 C239.73 759 299.46 759 361 759 C361 782.76 361 806.52 361 831 C265.63 831 170.26 831 72 831 C72 807.24 72 783.48 72 759 C60.12 759 48.24 759 36 759 C36 723.36 36 687.72 36 651 C11.91 651 -12.18 651 -37 651 C-37 686.64 -37 722.28 -37 759 C-48.88 759 -60.76 759 -73 759 C-73 782.76 -73 806.52 -73 831 C-84.88 831 -96.76 831 -109 831 C-109 855.09 -109 879.18 -109 904 C-97.12 904 -85.24 904 -73 904 C-73 927.76 -73 951.52 -73 976 C-61.12 976 -49.24 976 -37 976 C-37 999.76 -37 1023.52 -37 1048 C-24.79 1048 -12.58 1048 0 1048 C0 1059.88 0 1071.76 0 1084 C11.88 1084 23.76 1084 36 1084 C36 1096.21 36 1108.42 36 1121 C47.88 1121 59.76 1121 72 1121 C72 1144.76 72 1168.52 72 1193 C83.88 1193 95.76 1193 108 1193 C108 1204.88 108 1216.76 108 1229 C119.88 1229 131.76 1229 144 1229 C144 1276.52 144 1324.04 144 1373 C132.12 1373 120.24 1373 108 1373 C108 1420.85 108 1468.7 108 1518 C96.12 1518 84.24 1518 72 1518 C72 1541.76 72 1565.52 72 1590 C60.12 1590 48.24 1590 36 1590 C36 1614.09 36 1638.18 36 1663 C47.88 1663 59.76 1663 72 1663 C72 1686.76 72 1710.52 72 1735 C12.27 1735 -47.46 1735 -109 1735 C-109 1675.27 -109 1615.54 -109 1554 C-97.12 1554 -85.24 1554 -73 1554 C-73 1518.36 -73 1482.72 -73 1446 C-61.12 1446 -49.24 1446 -37 1446 C-37 1410.03 -37 1374.06 -37 1337 C-24.79 1337 -12.58 1337 0 1337 C0 1313.24 0 1289.48 0 1265 C-12.21 1265 -24.42 1265 -37 1265 C-37 1253.12 -37 1241.24 -37 1229 C-48.88 1229 -60.76 1229 -73 1229 C-73 1217.12 -73 1205.24 -73 1193 C-84.88 1193 -96.76 1193 -109 1193 C-109 1181.12 -109 1169.24 -109 1157 C-120.88 1157 -132.76 1157 -145 1157 C-145 1132.91 -145 1108.82 -145 1084 C-156.88 1084 -168.76 1084 -181 1084 C-181 1072.12 -181 1060.24 -181 1048 C-192.88 1048 -204.76 1048 -217 1048 C-217 1036.12 -217 1024.24 -217 1012 C-228.88 1012 -240.76 1012 -253 1012 C-253 1047.97 -253 1083.94 -253 1121 C-265.21 1121 -277.42 1121 -290 1121 C-290 1132.88 -290 1144.76 -290 1157 C-301.88 1157 -313.76 1157 -326 1157 C-326 1168.88 -326 1180.76 -326 1193 C-337.88 1193 -349.76 1193 -362 1193 C-362 1204.88 -362 1216.76 -362 1229 C-373.88 1229 -385.76 1229 -398 1229 C-398 1252.76 -398 1276.52 -398 1301 C-409.88 1301 -421.76 1301 -434 1301 C-434 1312.88 -434 1324.76 -434 1337 C-445.88 1337 -457.76 1337 -470 1337 C-470 1348.88 -470 1360.76 -470 1373 C-505.97 1373 -541.94 1373 -579 1373 C-579 1361.12 -579 1349.24 -579 1337 C-602.76 1337 -626.52 1337 -651 1337 C-651 1325.12 -651 1313.24 -651 1301 C-674.76 1301 -698.52 1301 -723 1301 C-723 1289.12 -723 1277.24 -723 1265 C-734.88 1265 -746.76 1265 -759 1265 C-759 1253.12 -759 1241.24 -759 1229 C-771.21 1229 -783.42 1229 -796 1229 C-796 1240.88 -796 1252.76 -796 1265 C-831.64 1265 -867.28 1265 -904 1265 C-904 1217.48 -904 1169.96 -904 1121 C-892.12 1121 -880.24 1121 -868 1121 C-868 1108.79 -868 1096.58 -868 1084 C-820.15 1084 -772.3 1084 -723 1084 C-723 1108.09 -723 1132.18 -723 1157 C-699.24 1157 -675.48 1157 -651 1157 C-651 1168.88 -651 1180.76 -651 1193 C-639.12 1193 -627.24 1193 -615 1193 C-615 1204.88 -615 1216.76 -615 1229 C-603.12 1229 -591.24 1229 -579 1229 C-579 1217.12 -579 1205.24 -579 1193 C-567.12 1193 -555.24 1193 -543 1193 C-543 1181.12 -543 1169.24 -543 1157 C-530.79 1157 -518.58 1157 -506 1157 C-506 1145.12 -506 1133.24 -506 1121 C-494.12 1121 -482.24 1121 -470 1121 C-470 1096.91 -470 1072.82 -470 1048 C-458.12 1048 -446.24 1048 -434 1048 C-434 1036.12 -434 1024.24 -434 1012 C-422.12 1012 -410.24 1012 -398 1012 C-398 988.24 -398 964.48 -398 940 C-386.12 940 -374.24 940 -362 940 C-362 916.24 -362 892.48 -362 868 C-373.88 868 -385.76 868 -398 868 C-398 843.91 -398 819.82 -398 795 C-409.88 795 -421.76 795 -434 795 C-434 771.24 -434 747.48 -434 723 C-445.88 723 -457.76 723 -470 723 C-470 699.24 -470 675.48 -470 651 C-481.88 651 -493.76 651 -506 651 C-506 639.12 -506 627.24 -506 615 C-518.21 615 -530.42 615 -543 615 C-543 590.91 -543 566.82 -543 542 C-530.79 542 -518.58 542 -506 542 C-506 530.12 -506 518.24 -506 506 C-494.12 506 -482.24 506 -470 506 C-470 494.12 -470 482.24 -470 470 C-458.12 470 -446.24 470 -434 470 C-434 458.12 -434 446.24 -434 434 C-422.12 434 -410.24 434 -398 434 C-398 422.12 -398 410.24 -398 398 C-374.24 398 -350.48 398 -326 398 C-326 386.12 -326 374.24 -326 362 C-301.91 362 -277.82 362 -253 362 C-253 349.79 -253 337.58 -253 325 C-205.48 325 -157.96 325 -109 325 C-109 265.6 -109 206.2 -109 145 C-97.12 145 -85.24 145 -73 145 C-73 120.91 -73 96.82 -73 72 C-61.12 72 -49.24 72 -37 72 C-37 60.12 -37 48.24 -37 36 C-24.79 36 -12.58 36 0 36 C0 24.12 0 12.24 0 0 Z M-290 470 C-290 481.88 -290 493.76 -290 506 C-301.88 506 -313.76 506 -326 506 C-326 517.88 -326 529.76 -326 542 C-349.76 542 -373.52 542 -398 542 C-398 577.97 -398 613.94 -398 651 C-386.12 651 -374.24 651 -362 651 C-362 674.76 -362 698.52 -362 723 C-338.24 723 -314.48 723 -290 723 C-290 675.15 -290 627.3 -290 578 C-277.79 578 -265.58 578 -253 578 C-253 554.24 -253 530.48 -253 506 C-241.12 506 -229.24 506 -217 506 C-217 494.12 -217 482.24 -217 470 C-241.09 470 -265.18 470 -290 470 Z " fill="#000000" transform="translate(1133,174)"/>
</svg>
