<?xml version="1.0" standalone="no"?>
<!DOCTYPE svg PUBLIC "-//W3C//DTD SVG 20010904//EN"
 "http://www.w3.org/TR/2001/REC-SVG-20010904/DTD/svg10.dtd">
<svg version="1.0" xmlns="http://www.w3.org/2000/svg"
 width="2000.000000pt" height="2000.000000pt" viewBox="0 0 2000.000000 2000.000000"
 preserveAspectRatio="xMidYMid meet">

<g transform="translate(0.000000,2000.000000) scale(0.100000,-0.100000)"
fill="#000000" stroke="none">
<path d="M7220 17185 l0 -295 -295 0 -295 0 0 -295 0 -295 -590 0 -590 0 0
-295 0 -295 -295 0 -295 0 0 -295 0 -295 -295 0 -295 0 0 -4420 0 -4420 295 0
295 0 0 -295 0 -295 885 0 885 0 0 -590 0 -590 295 0 295 0 0 -295 0 -295 295
0 295 0 0 -290 0 -290 295 0 295 0 0 -295 0 -295 2945 0 2945 0 0 295 0 295
295 0 295 0 0 290 0 290 295 0 295 0 0 295 0 295 295 0 295 0 0 2950 0 2950
1180 0 1180 0 0 295 0 295 295 0 295 0 0 295 0 295 -295 0 -295 0 0 295 0 295
-1180 0 -1180 0 0 1470 0 1470 -295 0 -295 0 0 295 0 295 -295 0 -295 0 0 295
0 295 -295 0 -295 0 0 295 0 295 -295 0 -295 0 0 295 0 295 -3240 0 -3240 0 0
-295z m6480 -590 l0 -295 295 0 295 0 0 -295 0 -295 295 0 295 0 0 -295 0
-295 295 0 295 0 0 -1470 0 -1470 -5305 0 -5305 0 0 1180 0 1180 295 0 295 0
0 585 0 585 590 0 590 0 0 295 0 295 295 0 295 0 0 295 0 295 3240 0 3240 0 0
-295z m4720 -5300 l0 -295 -5895 0 -5895 0 0 -295 0 -295 -885 0 -885 0 0 590
0 590 6780 0 6780 0 0 -295z m-2950 -3835 l0 -2950 -295 0 -295 0 0 -295 0
-295 -295 0 -295 0 0 -290 0 -290 -2945 0 -2945 0 0 290 0 290 -295 0 -295 0
0 295 0 295 -295 0 -295 0 0 590 0 590 -295 0 -295 0 0 295 0 295 -590 0 -590
0 0 295 0 295 -295 0 -295 0 0 1180 0 1180 295 0 295 0 0 295 0 295 590 0 590
0 0 -295 0 -295 295 0 295 0 0 -295 0 -295 295 0 295 0 0 590 0 590 295 0 295
0 0 295 0 295 3535 0 3535 0 0 -2950z"/>
<path d="M8990 8050 l0 -590 590 0 590 0 0 295 0 295 295 0 295 0 0 295 0 295
-885 0 -885 0 0 -590z"/>
<path d="M13110 8050 l0 -590 590 0 590 0 0 295 0 295 295 0 295 0 0 295 0
295 -885 0 -885 0 0 -590z"/>
<path d="M8400 5690 l0 -590 295 0 295 0 0 590 0 590 -295 0 -295 0 0 -590z"/>
<path d="M10760 5395 l0 -295 1175 0 1175 0 0 295 0 295 -1175 0 -1175 0 0
-295z"/>
</g>
</svg>
