<?xml version="1.0" standalone="no"?>
<!DOCTYPE svg PUBLIC "-//W3C//DTD SVG 20010904//EN"
 "http://www.w3.org/TR/2001/REC-SVG-20010904/DTD/svg10.dtd">
<svg version="1.0" xmlns="http://www.w3.org/2000/svg"
 width="2000.000000pt" height="2000.000000pt" viewBox="0 0 2000.000000 2000.000000"
 preserveAspectRatio="xMidYMid meet">

<g transform="translate(0.000000,2000.000000) scale(0.100000,-0.100000)"
fill="#000000" stroke="none">
<path d="M8400 17185 l0 -295 -885 0 -885 0 0 -295 0 -295 -590 0 -590 0 0
-295 0 -295 -295 0 -295 0 0 -295 0 -295 -295 0 -295 0 0 -290 0 -290 -295 0
-295 0 0 -295 0 -295 -295 0 -295 0 0 -590 0 -590 -295 0 -295 0 0 -2655 0
-2655 295 0 295 0 0 -295 0 -295 295 0 295 0 0 -295 0 -295 590 0 590 0 0
-590 0 -590 295 0 295 0 0 -295 0 -295 590 0 590 0 0 -585 0 -585 295 0 295 0
0 -295 0 -295 3535 0 3535 0 0 295 0 295 295 0 295 0 0 290 0 290 295 0 295 0
0 295 0 295 295 0 295 0 0 1180 0 1180 -295 0 -295 0 0 1180 0 1180 295 0 295
0 0 295 0 295 295 0 295 0 0 295 0 295 295 0 295 0 0 1475 0 1475 -295 0 -295
0 0 590 0 590 -295 0 -295 0 0 290 0 290 -295 0 -295 0 0 590 0 590 -295 0
-295 0 0 295 0 295 -590 0 -590 0 0 295 0 295 -2650 0 -2650 0 0 -295z m5300
-590 l0 -295 590 0 590 0 0 -590 0 -590 295 0 295 0 0 -290 0 -290 295 0 295
0 0 -590 0 -590 295 0 295 0 0 -1475 0 -1475 -295 0 -295 0 0 590 0 590 -4125
0 -4125 0 0 -885 0 -885 295 0 295 0 0 590 0 590 3240 0 3240 0 0 -295 0 -295
295 0 295 0 0 -590 0 -590 -295 0 -295 0 0 -1180 0 -1180 295 0 295 0 0 -1180
0 -1180 -295 0 -295 0 0 -295 0 -295 -295 0 -295 0 0 -290 0 -290 -3535 0
-3535 0 0 585 0 585 -295 0 -295 0 0 295 0 295 -590 0 -590 0 0 590 0 590
-295 0 -295 0 0 1475 0 1475 -295 0 -295 0 0 -1180 0 -1180 -295 0 -295 0 0
295 0 295 -295 0 -295 0 0 2655 0 2655 295 0 295 0 0 590 0 590 295 0 295 0 0
295 0 295 295 0 295 0 0 290 0 290 295 0 295 0 0 295 0 295 590 0 590 0 0 295
0 295 885 0 885 0 0 295 0 295 2650 0 2650 0 0 -295z"/>
<path d="M4860 9820 l0 -590 295 0 295 0 0 295 0 295 590 0 590 0 0 -295 0
-295 295 0 295 0 0 -295 0 -295 295 0 295 0 0 -295 0 -295 295 0 295 0 0 -885
0 -885 1180 0 1180 0 0 295 0 295 295 0 295 0 0 590 0 590 585 0 585 0 0 -590
0 -590 295 0 295 0 0 -295 0 -295 885 0 885 0 0 295 0 295 -885 0 -885 0 0
1180 0 1180 885 0 885 0 0 295 0 295 -885 0 -885 0 0 -295 0 -295 -295 0 -295
0 0 -295 0 -295 -585 0 -585 0 0 295 0 295 -295 0 -295 0 0 295 0 295 -885 0
-885 0 0 -295 0 -295 -590 0 -590 0 0 295 0 295 -590 0 -590 0 0 295 0 295
-885 0 -885 0 0 -590z m5900 -1475 l0 -885 -295 0 -295 0 0 -295 0 -295 -590
0 -590 0 0 1180 0 1180 885 0 885 0 0 -885z"/>
<path d="M9580 8050 l0 -590 295 0 295 0 0 590 0 590 -295 0 -295 0 0 -590z"/>
<path d="M13700 8050 l0 -590 295 0 295 0 0 590 0 590 -295 0 -295 0 0 -590z"/>
<path d="M10760 5395 l0 -295 295 0 295 0 0 -295 0 -295 880 0 880 0 0 295 0
295 -590 0 -590 0 0 295 0 295 -585 0 -585 0 0 -295z"/>
</g>
</svg>
