<?xml version="1.0" standalone="no"?>
<!DOCTYPE svg PUBLIC "-//W3C//DTD SVG 20010904//EN"
 "http://www.w3.org/TR/2001/REC-SVG-20010904/DTD/svg10.dtd">
<svg version="1.0" xmlns="http://www.w3.org/2000/svg"
 width="2000.000000pt" height="2000.000000pt" viewBox="0 0 2000.000000 2000.000000"
 preserveAspectRatio="xMidYMid meet">

<g transform="translate(0.000000,2000.000000) scale(0.100000,-0.100000)"
fill="#000000" stroke="none">
<path d="M4270 17185 l0 -295 -295 0 -295 0 0 -1470 0 -1470 295 0 295 0 0
-295 0 -295 -295 0 -295 0 0 -1770 0 -1770 295 0 295 0 0 -295 0 -295 -295 0
-295 0 0 -1180 0 -1180 295 0 295 0 0 -295 0 -295 295 0 295 0 0 -295 0 -295
590 0 590 0 0 -295 0 -295 295 0 295 0 0 -295 0 -295 295 0 295 0 0 -295 0
-295 295 0 295 0 0 -290 0 -290 295 0 295 0 0 -295 0 -295 2945 0 2945 0 0
295 0 295 295 0 295 0 0 290 0 290 295 0 295 0 0 295 0 295 295 0 295 0 0 590
0 590 295 0 295 0 0 1180 0 1180 -295 0 -295 0 0 885 0 885 295 0 295 0 0 295
0 295 295 0 295 0 0 1180 0 1180 -295 0 -295 0 0 295 0 295 295 0 295 0 0 295
0 295 295 0 295 0 0 880 0 880 -295 0 -295 0 0 295 0 295 -295 0 -295 0 0 295
0 295 -885 0 -885 0 0 -295 0 -295 -590 0 -590 0 0 295 0 295 -2355 0 -2355 0
0 -295 0 -295 -590 0 -590 0 0 295 0 295 -295 0 -295 0 0 295 0 295 -1475 0
-1475 0 0 -295z m2950 -590 l0 -295 295 0 295 0 0 -880 0 -880 295 0 295 0 0
585 0 585 295 0 295 0 0 295 0 295 2355 0 2355 0 0 -295 0 -295 295 0 295 0 0
-295 0 -295 295 0 295 0 0 590 0 590 885 0 885 0 0 -295 0 -295 295 0 295 0 0
-880 0 -880 -590 0 -590 0 0 -590 0 -590 295 0 295 0 0 -1180 0 -1180 -885 0
-885 0 0 295 0 295 -295 0 -295 0 0 590 0 590 -295 0 -295 0 0 -885 0 -885
295 0 295 0 0 -295 0 -295 590 0 590 0 0 -885 0 -885 295 0 295 0 0 -1180 0
-1180 -295 0 -295 0 0 -590 0 -590 -295 0 -295 0 0 -295 0 -295 -590 0 -590 0
0 -290 0 -290 -2650 0 -2650 0 0 290 0 290 -295 0 -295 0 0 295 0 295 -295 0
-295 0 0 295 0 295 -295 0 -295 0 0 885 0 885 -295 0 -295 0 0 -295 0 -295
-590 0 -590 0 0 295 0 295 -295 0 -295 0 0 1180 0 1180 1475 0 1475 0 0 295 0
295 -1180 0 -1180 0 0 295 0 295 -295 0 -295 0 0 1475 0 1475 1475 0 1475 0 0
295 0 295 -1180 0 -1180 0 0 295 0 295 -295 0 -295 0 0 880 0 880 295 0 295 0
0 295 0 295 1180 0 1180 0 0 -295z"/>
<path d="M14880 14830 l0 -290 295 0 295 0 0 -295 0 -295 295 0 295 0 0 295 0
295 -295 0 -295 0 0 290 0 290 -295 0 -295 0 0 -290z"/>
<path d="M7220 14245 l0 -295 295 0 295 0 0 295 0 295 -295 0 -295 0 0 -295z"/>
<path d="M9580 11885 l0 -885 -295 0 -295 0 0 -295 0 -295 -885 0 -885 0 0
-295 0 -295 885 0 885 0 0 295 0 295 295 0 295 0 0 -295 0 -295 2060 0 2060 0
0 295 0 295 -1765 0 -1765 0 0 1180 0 1180 -295 0 -295 0 0 -885z"/>
<path d="M7810 8345 l0 -295 -295 0 -295 0 0 -295 0 -295 295 0 295 0 0 295 0
295 295 0 295 0 0 -590 0 -590 590 0 590 0 0 885 0 885 -885 0 -885 0 0 -295z"/>
<path d="M13110 8345 l0 -295 -295 0 -295 0 0 -295 0 -295 295 0 295 0 0 295
0 295 295 0 295 0 0 -590 0 -590 590 0 590 0 0 885 0 885 -885 0 -885 0 0
-295z"/>
<path d="M10760 5395 l0 -295 880 0 880 0 0 295 0 295 -880 0 -880 0 0 -295z"/>
</g>
</svg>
