<?xml version="1.0" standalone="no"?>
<!DOCTYPE svg PUBLIC "-//W3C//DTD SVG 20010904//EN"
 "http://www.w3.org/TR/2001/REC-SVG-20010904/DTD/svg10.dtd">
<svg version="1.0" xmlns="http://www.w3.org/2000/svg"
 width="2000.000000pt" height="2000.000000pt" viewBox="0 0 2000.000000 2000.000000"
 preserveAspectRatio="xMidYMid meet">

<g transform="translate(0.000000,2000.000000) scale(0.100000,-0.100000)"
fill="#000000" stroke="none">
<path d="M8990 17185 l0 -295 -590 0 -590 0 0 -295 0 -295 -1475 0 -1475 0 0
-295 0 -295 -295 0 -295 0 0 -295 0 -295 -295 0 -295 0 0 -585 0 -585 -295 0
-295 0 0 -885 0 -885 -295 0 -295 0 0 -2065 0 -2065 -295 0 -295 0 0 -2355 0
-2355 295 0 295 0 0 -295 0 -295 590 0 590 0 0 -295 0 -295 2065 0 2065 0 0
295 0 295 3830 0 3830 0 0 295 0 295 885 0 885 0 0 585 0 585 -295 0 -295 0 0
885 0 885 -295 0 -295 0 0 1475 0 1475 295 0 295 0 0 295 0 295 295 0 295 0 0
1770 0 1770 -295 0 -295 0 0 590 0 590 -295 0 -295 0 0 290 0 290 -295 0 -295
0 0 590 0 590 -295 0 -295 0 0 295 0 295 -590 0 -590 0 0 295 0 295 -2355 0
-2355 0 0 -295z m-590 -2355 l0 -290 -295 0 -295 0 0 -295 0 -295 -295 0 -295
0 0 -590 0 -590 -1180 0 -1180 0 0 295 0 295 590 0 590 0 0 295 0 295 295 0
295 0 0 295 0 295 590 0 590 0 0 290 0 290 295 0 295 0 0 -290z m4120 0 l0
-290 -585 0 -585 0 0 -295 0 -295 -295 0 -295 0 0 -295 0 -295 -295 0 -295 0
0 -295 0 -295 -590 0 -590 0 0 295 0 295 590 0 590 0 0 295 0 295 295 0 295 0
0 295 0 295 295 0 295 0 0 290 0 290 585 0 585 0 0 -290z m2360 -4125 l0 -295
295 0 295 0 0 -2950 0 -2950 -295 0 -295 0 0 -295 0 -295 -295 0 -295 0 0
-290 0 -290 -3240 0 -3240 0 0 290 0 290 -295 0 -295 0 0 885 0 885 -885 0
-885 0 0 590 0 590 -295 0 -295 0 0 885 0 885 295 0 295 0 0 295 0 295 590 0
590 0 0 -295 0 -295 295 0 295 0 0 -590 0 -590 295 0 295 0 0 885 0 885 295 0
295 0 0 590 0 590 295 0 295 0 0 295 0 295 2945 0 2945 0 0 -295z"/>
<path d="M8400 8345 l0 -295 295 0 295 0 0 -590 0 -590 590 0 590 0 0 885 0
885 -885 0 -885 0 0 -295z"/>
<path d="M13110 8345 l0 -295 295 0 295 0 0 -590 0 -590 590 0 590 0 0 885 0
885 -885 0 -885 0 0 -295z"/>
<path d="M11350 5395 l0 -295 880 0 880 0 0 295 0 295 -880 0 -880 0 0 -295z"/>
</g>
</svg>
