<?xml version="1.0" standalone="no"?>
<!DOCTYPE svg PUBLIC "-//W3C//DTD SVG 20010904//EN"
 "http://www.w3.org/TR/2001/REC-SVG-20010904/DTD/svg10.dtd">
<svg version="1.0" xmlns="http://www.w3.org/2000/svg"
 width="2000.000000pt" height="2000.000000pt" viewBox="0 0 2000.000000 2000.000000"
 preserveAspectRatio="xMidYMid meet">

<g transform="translate(0.000000,2000.000000) scale(0.100000,-0.100000)"
fill="#000000" stroke="none">
<path d="M8400 16595 l0 -295 -590 0 -590 0 0 -295 0 -295 -295 0 -295 0 0
-295 0 -295 -590 0 -590 0 0 -290 0 -290 -295 0 -295 0 0 -295 0 -295 -295 0
-295 0 0 -590 0 -590 -295 0 -295 0 0 -1180 0 -1180 -295 0 -295 0 0 -1475 0
-1475 590 0 590 0 0 -590 0 -590 295 0 295 0 0 -590 0 -590 295 0 295 0 0
-295 0 -295 590 0 590 0 0 -585 0 -585 295 0 295 0 0 -295 0 -295 295 0 295 0
0 -295 0 -295 295 0 295 0 0 -295 0 -295 2060 0 2060 0 0 295 0 295 885 0 885
0 0 295 0 295 295 0 295 0 0 295 0 295 295 0 295 0 0 585 0 585 295 0 295 0 0
2065 0 2065 590 0 590 0 0 590 0 590 295 0 295 0 0 1770 0 1770 -295 0 -295 0
0 295 0 295 -295 0 -295 0 0 295 0 295 -295 0 -295 0 0 290 0 290 -295 0 -295
0 0 295 0 295 -295 0 -295 0 0 295 0 295 -590 0 -590 0 0 295 0 295 -2650 0
-2650 0 0 -295z m6480 -5890 l0 -295 295 0 295 0 0 -2950 0 -2950 -295 0 -295
0 0 295 0 295 -590 0 -590 0 0 590 0 590 -1765 0 -1765 0 0 -295 0 -295 -295
0 -295 0 0 -295 0 -295 -885 0 -885 0 0 1770 0 1770 295 0 295 0 0 1180 0
1180 3240 0 3240 0 0 -295z m-8840 -1770 l0 -295 590 0 590 0 0 -1770 0 -1770
-885 0 -885 0 0 590 0 590 -295 0 -295 0 0 1475 0 1475 590 0 590 0 0 -295z
m6480 -3540 l0 -295 -585 0 -585 0 0 295 0 295 585 0 585 0 0 -295z"/>
<path d="M8990 8345 l0 -295 295 0 295 0 0 -590 0 -590 590 0 590 0 0 885 0
885 -885 0 -885 0 0 -295z"/>
<path d="M13110 8345 l0 -295 295 0 295 0 0 -590 0 -590 590 0 590 0 0 885 0
885 -885 0 -885 0 0 -295z"/>
</g>
</svg>
