<?xml version="1.0" standalone="no"?>
<!DOCTYPE svg PUBLIC "-//W3C//DTD SVG 20010904//EN"
 "http://www.w3.org/TR/2001/REC-SVG-20010904/DTD/svg10.dtd">
<svg version="1.0" xmlns="http://www.w3.org/2000/svg"
 width="2000.000000pt" height="2000.000000pt" viewBox="0 0 2000.000000 2000.000000"
 preserveAspectRatio="xMidYMid meet">

<g transform="translate(0.000000,2000.000000) scale(0.100000,-0.100000)"
fill="#000000" stroke="none">
<path d="M7220 16595 l0 -295 -295 0 -295 0 0 -295 0 -295 -590 0 -590 0 0
-585 0 -585 -295 0 -295 0 0 -295 0 -295 -295 0 -295 0 0 -2655 0 -2655 -295
0 -295 0 0 -885 0 -885 295 0 295 0 0 -590 0 -590 295 0 295 0 0 -295 0 -295
295 0 295 0 0 -295 0 -295 -295 0 -295 0 0 -880 0 -880 295 0 295 0 0 -295 0
-295 885 0 885 0 0 295 0 295 3240 0 3240 0 0 295 0 295 295 0 295 0 0 290 0
290 295 0 295 0 0 295 0 295 295 0 295 0 0 295 0 295 295 0 295 0 0 1180 0
1180 -295 0 -295 0 0 885 0 885 590 0 590 0 0 2065 0 2065 -295 0 -295 0 0
590 0 590 -295 0 -295 0 0 290 0 290 -295 0 -295 0 0 295 0 295 -295 0 -295 0
0 295 0 295 -590 0 -590 0 0 295 0 295 -2945 0 -2945 0 0 -295z m1770 -2350
l0 -295 1180 0 1180 0 0 -295 0 -295 -1180 0 -1180 0 0 295 0 295 -295 0 -295
0 0 295 0 295 295 0 295 0 0 -295z m5890 0 l0 -295 -295 0 -295 0 0 -295 0
-295 -1180 0 -1180 0 0 295 0 295 1180 0 1180 0 0 295 0 295 295 0 295 0 0
-295z m-590 -2950 l0 -295 295 0 295 0 0 -295 0 -295 295 0 295 0 0 -590 0
-590 -885 0 -885 0 0 -295 0 -295 295 0 295 0 0 -590 0 -590 590 0 590 0 0
-1180 0 -1180 -295 0 -295 0 0 -295 0 -295 -295 0 -295 0 0 -295 0 -295 -295
0 -295 0 0 -290 0 -290 -2355 0 -2355 0 0 290 0 290 -590 0 -590 0 0 295 0
295 -295 0 -295 0 0 295 0 295 -295 0 -295 0 0 295 0 295 -885 0 -885 0 0 590
0 590 -295 0 -295 0 0 885 0 885 295 0 295 0 0 295 0 295 885 0 885 0 0 -1180
0 -1180 590 0 590 0 0 295 0 295 295 0 295 0 0 295 0 295 590 0 590 0 0 295 0
295 295 0 295 0 0 -590 0 -590 590 0 590 0 0 885 0 885 -590 0 -590 0 0 295 0
295 295 0 295 0 0 295 0 295 295 0 295 0 0 295 0 295 585 0 585 0 0 295 0 295
885 0 885 0 0 -295z"/>
<path d="M13110 8345 l0 -295 295 0 295 0 0 295 0 295 -295 0 -295 0 0 -295z"/>
<path d="M11930 5690 l0 -590 590 0 590 0 0 590 0 590 -590 0 -590 0 0 -590z"/>
</g>
</svg>
