<?xml version="1.0" standalone="no"?>
<!DOCTYPE svg PUBLIC "-//W3C//DTD SVG 20010904//EN"
 "http://www.w3.org/TR/2001/REC-SVG-20010904/DTD/svg10.dtd">
<svg version="1.0" xmlns="http://www.w3.org/2000/svg"
 width="2000.000000pt" height="2000.000000pt" viewBox="0 0 2000.000000 2000.000000"
 preserveAspectRatio="xMidYMid meet">

<g transform="translate(0.000000,2000.000000) scale(0.100000,-0.100000)"
fill="#000000" stroke="none">
<path d="M6630 16595 l0 -295 -590 0 -590 0 0 -295 0 -295 -590 0 -590 0 0
-295 0 -295 -295 0 -295 0 0 -290 0 -290 -295 0 -295 0 0 -885 0 -885 -295 0
-295 0 0 -2065 0 -2065 -295 0 -295 0 0 -1180 0 -1180 -295 0 -295 0 0 -590 0
-590 -295 0 -295 0 0 -295 0 -295 1475 0 1475 0 0 -295 0 -295 1475 0 1475 0
0 -290 0 -290 295 0 295 0 0 -295 0 -295 3535 0 3535 0 0 295 0 295 295 0 295
0 0 290 0 290 295 0 295 0 0 295 0 295 885 0 885 0 0 590 0 590 -295 0 -295 0
0 295 0 295 -295 0 -295 0 0 1770 0 1770 590 0 590 0 0 1770 0 1770 -295 0
-295 0 0 880 0 880 -295 0 -295 0 0 295 0 295 -295 0 -295 0 0 295 0 295 -885
0 -885 0 0 295 0 295 -3535 0 -3535 0 0 -295z m10020 -3530 l0 -295 -6485 0
-6485 0 0 295 0 295 6485 0 6485 0 0 -295z m-1180 -5605 l0 -2950 -295 0 -295
0 0 -295 0 -295 -295 0 -295 0 0 -290 0 -290 -3535 0 -3535 0 0 585 0 585
-295 0 -295 0 0 295 0 295 -590 0 -590 0 0 -295 0 -295 -885 0 -885 0 0 295 0
295 -885 0 -885 0 0 590 0 590 295 0 295 0 0 1180 0 1180 295 0 295 0 0 590 0
590 885 0 885 0 0 -295 0 -295 295 0 295 0 0 295 0 295 590 0 590 0 0 -295 0
-295 295 0 295 0 0 -1180 0 -1180 295 0 295 0 0 1475 0 1475 295 0 295 0 0
295 0 295 3535 0 3535 0 0 -2950z m1180 -2065 l0 -295 -295 0 -295 0 0 295 0
295 295 0 295 0 0 -295z"/>
<path d="M4270 7755 l0 -1475 295 0 295 0 0 -590 0 -590 295 0 295 0 0 590 0
590 -295 0 -295 0 0 1475 0 1475 -295 0 -295 0 0 -1475z"/>
<path d="M8400 7755 l0 -295 885 0 885 0 0 295 0 295 -885 0 -885 0 0 -295z"/>
<path d="M13110 7755 l0 -295 885 0 885 0 0 295 0 295 -885 0 -885 0 0 -295z"/>
<path d="M11350 5985 l0 -295 -590 0 -590 0 0 -295 0 -295 590 0 590 0 0 295
0 295 290 0 290 0 0 -295 0 -295 590 0 590 0 0 295 0 295 -590 0 -590 0 0 295
0 295 -290 0 -290 0 0 -295z"/>
</g>
</svg>
