<?xml version="1.0" standalone="no"?>
<!DOCTYPE svg PUBLIC "-//W3C//DTD SVG 20010904//EN"
 "http://www.w3.org/TR/2001/REC-SVG-20010904/DTD/svg10.dtd">
<svg version="1.0" xmlns="http://www.w3.org/2000/svg"
 width="2000.000000pt" height="2000.000000pt" viewBox="0 0 2000.000000 2000.000000"
 preserveAspectRatio="xMidYMid meet">

<g transform="translate(0.000000,2000.000000) scale(0.100000,-0.100000)"
fill="#000000" stroke="none">
<path d="M8400 17775 l0 -295 -590 0 -590 0 0 -295 0 -295 -295 0 -295 0 0
-295 0 -295 -295 0 -295 0 0 -295 0 -295 -590 0 -590 0 0 -585 0 -585 -295 0
-295 0 0 -2655 0 -2655 -295 0 -295 0 0 -1475 0 -1475 295 0 295 0 0 -295 0
-295 295 0 295 0 0 -295 0 -295 885 0 885 0 0 -590 0 -590 295 0 295 0 0 -290
0 -290 295 0 295 0 0 -295 0 -295 295 0 295 0 0 -295 0 -295 3240 0 3240 0 0
295 0 295 295 0 295 0 0 295 0 295 295 0 295 0 0 290 0 290 295 0 295 0 0
3245 0 3245 295 0 295 0 0 885 0 885 295 0 295 0 0 1180 0 1180 -295 0 -295 0
0 585 0 585 -295 0 -295 0 0 295 0 295 -295 0 -295 0 0 295 0 295 -295 0 -295
0 0 295 0 295 -590 0 -590 0 0 295 0 295 -2945 0 -2945 0 0 -295z m6480 -4710
l0 -295 295 0 295 0 0 -885 0 -885 295 0 295 0 0 -885 0 -885 -4420 0 -4420 0
0 590 0 590 295 0 295 0 0 295 0 295 2355 0 2355 0 0 295 0 295 590 0 590 0 0
590 0 590 295 0 295 0 0 295 0 295 295 0 295 0 0 -295z m-9430 -3540 l0 -295
590 0 590 0 0 -295 0 -295 295 0 295 0 0 -885 0 -885 295 0 295 0 0 295 0 295
295 0 295 0 0 590 0 590 295 0 295 0 0 -295 0 -295 590 0 590 0 0 295 0 295
295 0 295 0 0 -590 0 -590 295 0 295 0 0 590 0 590 290 0 290 0 0 -295 0 -295
295 0 295 0 0 -295 0 -295 295 0 295 0 0 590 0 590 295 0 295 0 0 -295 0 -295
590 0 590 0 0 295 0 295 295 0 295 0 0 -590 0 -590 295 0 295 0 0 -1770 0
-1770 -295 0 -295 0 0 -290 0 -290 -295 0 -295 0 0 -295 0 -295 -3240 0 -3240
0 0 295 0 295 -295 0 -295 0 0 290 0 290 -295 0 -295 0 0 885 0 885 -1180 0
-1180 0 0 295 0 295 -295 0 -295 0 0 1475 0 1475 295 0 295 0 0 295 0 295 295
0 295 0 0 -295z"/>
<path d="M8400 7165 l0 -295 1180 0 1180 0 0 295 0 295 -1180 0 -1180 0 0
-295z"/>
<path d="M13110 7165 l0 -295 1180 0 1180 0 0 295 0 295 -1180 0 -1180 0 0
-295z"/>
<path d="M10170 4805 l0 -295 1470 0 1470 0 0 295 0 295 -1470 0 -1470 0 0
-295z"/>
<path d="M10760 3630 l0 -290 295 0 295 0 0 290 0 290 -295 0 -295 0 0 -290z"/>
</g>
</svg>
