<?xml version="1.0" standalone="no"?>
<!DOCTYPE svg PUBLIC "-//W3C//DTD SVG 20010904//EN"
 "http://www.w3.org/TR/2001/REC-SVG-20010904/DTD/svg10.dtd">
<svg version="1.0" xmlns="http://www.w3.org/2000/svg"
 width="2000.000000pt" height="2000.000000pt" viewBox="0 0 2000.000000 2000.000000"
 preserveAspectRatio="xMidYMid meet">

<g transform="translate(0.000000,2000.000000) scale(0.100000,-0.100000)"
fill="#000000" stroke="none">
<path d="M8990 17775 l0 -295 -885 0 -885 0 0 -295 0 -295 -885 0 -885 0 0
-295 0 -295 -295 0 -295 0 0 -590 0 -590 -295 0 -295 0 0 -4420 0 -4420 295 0
295 0 0 -295 0 -295 295 0 295 0 0 -295 0 -295 590 0 590 0 0 -295 0 -295 295
0 295 0 0 -295 0 -295 295 0 295 0 0 -290 0 -290 295 0 295 0 0 -295 0 -295
2945 0 2945 0 0 295 0 295 295 0 295 0 0 290 0 290 295 0 295 0 0 295 0 295
295 0 295 0 0 590 0 590 295 0 295 0 0 1180 0 1180 -295 0 -295 0 0 885 0 885
295 0 295 0 0 2945 0 2945 -295 0 -295 0 0 295 0 295 -295 0 -295 0 0 295 0
295 -295 0 -295 0 0 295 0 295 -885 0 -885 0 0 295 0 295 -2060 0 -2060 0 0
-295z m4120 -5300 l0 -295 295 0 295 0 0 -295 0 -295 295 0 295 0 0 -590 0
-590 590 0 590 0 0 -1180 0 -1180 295 0 295 0 0 -1180 0 -1180 -295 0 -295 0
0 -590 0 -590 -295 0 -295 0 0 -295 0 -295 -590 0 -590 0 0 -290 0 -290 -2650
0 -2650 0 0 290 0 290 -295 0 -295 0 0 295 0 295 -295 0 -295 0 0 295 0 295
-295 0 -295 0 0 295 0 295 -590 0 -590 0 0 295 0 295 -295 0 -295 0 0 1770 0
1770 885 0 885 0 0 -590 0 -590 590 0 590 0 0 885 0 885 295 0 295 0 0 295 0
295 1475 0 1475 0 0 295 0 295 290 0 290 0 0 295 0 295 295 0 295 0 0 295 0
295 295 0 295 0 0 -295z"/>
<path d="M8990 8050 l0 -1180 590 0 590 0 0 1180 0 1180 -590 0 -590 0 0
-1180z"/>
<path d="M13700 8050 l0 -1180 590 0 590 0 0 1180 0 1180 -590 0 -590 0 0
-1180z"/>
<path d="M10760 5395 l0 -295 880 0 880 0 0 295 0 295 -880 0 -880 0 0 -295z"/>
</g>
</svg>
