<?xml version="1.0" encoding="UTF-8"?>
<svg version="1.1" xmlns="http://www.w3.org/2000/svg" width="2000" height="2000">
<path d="M0 0 C53.79 0 107.58 0 163 0 C163 10.89 163 21.78 163 33 C173.89 33 184.78 33 196 33 C196 43.56 196 54.12 196 65 C206.56 65 217.12 65 228 65 C228 140.24 228 215.48 228 293 C217.44 293 206.88 293 196 293 C196 303.89 196 314.78 196 326 C185.11 326 174.22 326 163 326 C163 336.56 163 347.12 163 358 C152.44 358 141.88 358 131 358 C131 368.89 131 379.78 131 391 C184.79 391 238.58 391 294 391 C294 401.89 294 412.78 294 424 C304.56 424 315.12 424 326 424 C326 445.45 326 466.9 326 489 C336.89 489 347.78 489 359 489 C359 499.56 359 510.12 359 521 C369.56 521 380.12 521 391 521 C391 703.82 391 886.64 391 1075 C358.99 1075 326.98 1075 294 1075 C294 967.42 294 859.84 294 749 C283.11 749 272.22 749 261 749 C261 1082.3 261 1415.6 261 1759 C218.1 1759 175.2 1759 131 1759 C131 1737.55 131 1716.1 131 1694 C120.11 1694 109.22 1694 98 1694 C98 1500.29 98 1306.58 98 1107 C87.44 1107 76.88 1107 66 1107 C66 1311.27 66 1515.54 66 1726 C55.11 1726 44.22 1726 33 1726 C33 1736.89 33 1747.78 33 1759 C-9.9 1759 -52.8 1759 -97 1759 C-97 1425.7 -97 1092.4 -97 749 C-107.89 749 -118.78 749 -130 749 C-130 856.58 -130 964.16 -130 1075 C-162.01 1075 -194.02 1075 -227 1075 C-227 892.18 -227 709.36 -227 521 C-216.44 521 -205.88 521 -195 521 C-195 499.55 -195 478.1 -195 456 C-184.11 456 -173.22 456 -162 456 C-162 445.44 -162 434.88 -162 424 C-151.44 424 -140.88 424 -130 424 C-130 413.11 -130 402.22 -130 391 C-76.21 391 -22.42 391 33 391 C33 380.11 33 369.22 33 358 C22.11 358 11.22 358 0 358 C0 347.44 0 336.88 0 326 C-10.56 326 -21.12 326 -32 326 C-32 315.11 -32 304.22 -32 293 C-42.89 293 -53.78 293 -65 293 C-65 217.76 -65 142.52 -65 65 C-54.11 65 -43.22 65 -32 65 C-32 54.44 -32 43.88 -32 33 C-21.44 33 -10.88 33 0 33 C0 22.11 0 11.22 0 0 Z " fill="#000000" transform="translate(902,145)"/>
</svg>
